<?xml version="1.0" encoding="UTF-8"?>
<svg width="31px" height="30px" viewBox="0 0 31 30" version="1.1" xmlns="http://www.w3.org/2000/svg" xmlns:xlink="http://www.w3.org/1999/xlink">
    <!-- Generator: Sketch 50 (54983) - http://www.bohemiancoding.com/sketch -->
    <title>facebook-logo</title>
    <desc>Created with Sketch.</desc>
    <defs></defs>
    <g id="2.0" stroke="none" stroke-width="1" fill="none" fill-rule="evenodd">
        <g id="pr-main" transform="translate(-20.000000, -670.000000)" fill="#FFFFFF" fill-rule="nonzero">
            <g id="Group-4" transform="translate(20.000000, 670.000000)">
                <g id="facebook-logo">
                    <g transform="translate(2.000000, 2.000000)" id="White">
                        <g>
                            <g id="Layer_2">
                                <g id="White">
                                    <path d="M25.6659881,0 L1.49928619,0 C0.67125329,-5.03731555e-17 1.01404784e-16,0.666894502 0,1.48955056 L0,25.4993258 C1.01404784e-16,26.3219819 0.67125329,26.9888764 1.49928619,26.9888764 L14.5104032,26.9888764 L14.5104032,16.5377528 L10.9703371,16.5377528 L10.9703371,12.4644944 L14.5104032,12.4644944 L14.5104032,9.46011236 C14.5104032,5.97438202 16.6529676,4.07629213 19.7838599,4.07629213 C20.8405064,4.07268071 21.8965641,4.126356 22.9473232,4.23707865 L22.9473232,7.87752809 L20.7762591,7.87752809 C19.0744217,7.87752809 18.7405684,8.68146067 18.7405684,9.8605618 L18.7405684,12.4614607 L22.7997356,12.4614607 L22.2714739,16.5347191 L18.7436219,16.5347191 L18.7436219,26.9888764 L25.6649703,26.9888764 C26.4930032,26.9888764 27.1642564,26.3219819 27.1642564,25.4993258 L27.1642564,1.48955056 C27.1642566,0.667289253 26.4936235,0.000558222206 25.6659881,0 L25.6659881,0 Z" id="White-2"></path>
                                </g>
                            </g>
                        </g>
                    </g>
                </g>
            </g>
        </g>
    </g>
</svg>