<?xml version="1.0" encoding="UTF-8"?>
<svg width="31px" height="30px" viewBox="0 0 31 30" version="1.1" xmlns="http://www.w3.org/2000/svg" xmlns:xlink="http://www.w3.org/1999/xlink">
    <!-- Generator: Sketch 50 (54983) - http://www.bohemiancoding.com/sketch -->
    <title>instagram-logo</title>
    <desc>Created with Sketch.</desc>
    <defs>
        <polygon id="path-1" points="0 26.9967857 27.1678971 26.9967857 27.1678971 0.00851785692 0 0.00851785692"></polygon>
    </defs>
    <g id="2.0" stroke="none" stroke-width="1" fill="none" fill-rule="evenodd">
        <g id="pr-main" transform="translate(-61.000000, -670.000000)">
            <g id="Group-4" transform="translate(20.000000, 670.000000)">
                <g id="instagrame-logo" transform="translate(41.000000, 0.000000)">
                    <g id="Group-7" transform="translate(2.000000, 2.000000)">
                        <g id="Group-3">
                            <mask id="mask-2" fill="white">
                                <use xlink:href="#path-1"></use>
                            </mask>
                            <g id="Clip-2"></g>
                            <path d="M13.5839755,0.00851785692 C9.89476961,0.00851785692 9.43217647,0.0240535712 7.98330392,0.0897321426 C6.53745098,0.15525 5.54998529,0.383410714 4.68594608,0.717053571 C3.79268137,1.06189286 3.03513725,1.52335714 2.27991176,2.273625 C1.5247402,3.02394643 1.0602598,3.77657143 0.713166667,4.66403571 C0.377343137,5.52246429 0.147691176,6.50351786 0.081745098,7.93998214 C0.0156372549,9.37944643 0,9.83903571 0,13.5042857 C0,17.1694821 0.0156372549,17.6290714 0.081745098,19.0685357 C0.147691176,20.505 0.377343137,21.4860536 0.713166667,22.3444821 C1.0602598,23.2319464 1.5247402,23.9845714 2.27991176,24.7348929 C3.03513725,25.4851607 3.79268137,25.946625 4.68594608,26.2915179 C5.54998529,26.6251071 6.53745098,26.8532679 7.98330392,26.9187857 C9.43217647,26.9844643 9.89476961,27 13.5839755,27 C17.2731275,27 17.7357206,26.9844643 19.1845931,26.9187857 C20.6304461,26.8532679 21.6179118,26.6251071 22.481951,26.2915179 C23.3752157,25.946625 24.1327598,25.4851607 24.8879853,24.7348929 C25.6431569,23.9845714 26.1076373,23.2319464 26.4547843,22.3444821 C26.7905539,21.4860536 27.0202059,20.505 27.086152,19.0685357 C27.1522598,17.6290714 27.1678971,17.1694821 27.1678971,13.5042857 C27.1678971,9.83903571 27.1522598,9.37944643 27.086152,7.93998214 C27.0202059,6.50351786 26.7905539,5.52246429 26.4547843,4.66403571 C26.1076373,3.77657143 25.6431569,3.02394643 24.8879853,2.273625 C24.1327598,1.52335714 23.3752157,1.06189286 22.481951,0.717053571 C21.6179118,0.383410714 20.6304461,0.15525 19.1845931,0.0897321426 C17.7357206,0.0240535712 17.2731275,0.00851785692 13.5839755,0.00851785692 Z M13.5839755,2.44017857 C17.2110098,2.44017857 17.6406569,2.45394643 19.0730294,2.518875 C20.397451,2.578875 21.1167108,2.79873214 21.5953725,2.98355357 C22.2294363,3.228375 22.6819461,3.52082143 23.1572647,3.99310714 C23.6326373,4.46533929 23.9269951,4.91491071 24.1734167,5.54485714 C24.3594461,6.02041071 24.5807402,6.735 24.6411324,8.05082143 C24.7064853,9.47389286 24.7203431,9.90075 24.7203431,13.5042857 C24.7203431,17.1077679 24.7064853,17.534625 24.6411324,18.9576964 C24.5807402,20.2735179 24.3594461,20.9881071 24.1734167,21.4636607 C23.9269951,22.0936071 23.6326373,22.5431786 23.1572647,23.0154107 C22.6819461,23.4876964 22.2294363,23.7801429 21.5953725,24.0249643 C21.1167108,24.2097857 20.397451,24.4296429 19.0730294,24.4896429 C17.6408725,24.5545714 17.2112794,24.5683393 13.5839755,24.5683393 C9.95661765,24.5683393 9.52707843,24.5545714 8.09486765,24.4896429 C6.77044608,24.4296429 6.05118627,24.2097857 5.57252451,24.0249643 C4.93846078,23.7801429 4.48595098,23.4876964 4.01063235,23.0154107 C3.53531373,22.5431786 3.24090196,22.0936071 2.99448039,21.4636607 C2.80845098,20.9881071 2.58715686,20.2735179 2.52676471,18.9576964 C2.46141176,17.534625 2.44755392,17.1077679 2.44755392,13.5042857 C2.44755392,9.90075 2.46141176,9.47389286 2.52676471,8.05082143 C2.58715686,6.735 2.80845098,6.02041071 2.99448039,5.54485714 C3.24090196,4.91491071 3.5352598,4.46533929 4.01063235,3.99310714 C4.48595098,3.52082143 4.93846078,3.228375 5.57252451,2.98355357 C6.05118627,2.79873214 6.77044608,2.578875 8.09486765,2.518875 C9.5272402,2.45394643 9.95688725,2.44017857 13.5839755,2.44017857 L13.5839755,2.44017857 Z" id="Fill-1" fill="#FFFFFF" mask="url(#mask-2)"></path>
                        </g>
                        <path d="M13.5839755,18.0028393 C11.083201,18.0028393 9.05596569,15.9887679 9.05596569,13.5042857 C9.05596569,11.01975 11.083201,9.00567857 13.5839755,9.00567857 C16.0846961,9.00567857 18.1119314,11.01975 18.1119314,13.5042857 C18.1119314,15.9887679 16.0846961,18.0028393 13.5839755,18.0028393 Z M13.5839755,6.57401786 C9.73144118,6.57401786 6.60841176,9.67676786 6.60841176,13.5042857 C6.60841176,17.33175 9.73144118,20.4345 13.5839755,20.4345 C17.4364559,20.4345 20.5594853,17.33175 20.5594853,13.5042857 C20.5594853,9.67676786 17.4364559,6.57401786 13.5839755,6.57401786 L13.5839755,6.57401786 Z" id="Fill-4" fill="#FFFFFF"></path>
                        <path d="M22.4651814,6.30021429 C22.4651814,7.19464286 21.7353529,7.91967857 20.8350784,7.91967857 C19.9348578,7.91967857 19.2050294,7.19464286 19.2050294,6.30021429 C19.2050294,5.40578571 19.9348578,4.68069643 20.8350784,4.68069643 C21.7353529,4.68069643 22.4651814,5.40578571 22.4651814,6.30021429" id="Fill-5" fill="#FFFFFF"></path>
                    </g>
                </g>
            </g>
        </g>
    </g>
</svg>