<?xml version="1.0" encoding="UTF-8"?>
<svg width="102px" height="100px" viewBox="0 0 102 100" version="1.1" xmlns="http://www.w3.org/2000/svg" xmlns:xlink="http://www.w3.org/1999/xlink">
    <!-- Generator: Sketch 50 (54983) - http://www.bohemiancoding.com/sketch -->
    <title>Group 44</title>
    <desc>Created with Sketch.</desc>
    <defs></defs>
    <g id="2.0" stroke="none" stroke-width="1" fill="none" fill-rule="evenodd">
        <g id="Group-44">
            <circle id="Oval" fill="#FFFFFF" cx="51" cy="40" r="35"></circle>
            <path d="M51,0 C73.0666667,0 91,17.9266667 91,40 C91,62.08 73.0666667,80 51,80 C28.9333333,80 11,62.08 11,40 C11,17.9266667 28.9333333,0 51,0 Z M52.0666667,65.44 C51.3333333,65.4666667 52.8666667,62.0133333 50.8666667,62.14 C48.8666667,62.26 48.3333333,62.0133333 47.4666667,61.92 C46.6,61.8266667 47.6,66.5466667 45.9333333,71.7866667 C45.4,73.6933333 45.8,73.9533333 47.2666667,73.1266667 C49.7333333,71.74 51.4,67.7533333 51.7333333,67.74 C52.3333333,67.72 52.1333333,71.4533333 54.6666667,71.46 C57.2,71.4666667 57.4666667,67.3466667 57.8,67.34 C58.2,67.3333333 58.1333333,68.72 58.9333333,70.3466667 C60.8,73.9733333 61.4,72.8133333 61.5333333,70.98 C62,63.5866667 64.2,61.2866667 63.7333333,61.02 C61.3333333,59.6 58.4,64.8533333 58,64.8733333 C57.6,64.8933333 57.8666667,62.0066667 55.5333333,62.0733333 C53.0666667,62.14 52.7333333,65.4133333 52.0666667,65.44 Z M27.4666667,47.0866667 C27.4666667,47.0866667 26.2666667,48.6266667 27.8666667,51.12 C29.4,53.6133333 31.6,56.1266667 32.5333333,57.9733333 C33.4666667,59.82 38.6666667,63.2533333 39.6666667,64.3133333 C40.6,65.3733333 43.3333333,67.5266667 43.6,68.2733333 C43.8666667,69.02 45.4,64.1066667 45.2666667,63.0666667 C45.1333333,62.0266667 44.2,60.6066667 42,59.8933333 C39.8,59.1866667 36.4,56.6666667 35.2666667,54.9866667 C34.1333333,53.3066667 27.4666667,47.0866667 27.4666667,47.0866667 Z M67.0666667,13.9 C65.3333333,13.9333333 63.4666667,16.7533333 62.4666667,16.64 C61,16.4733333 54.8666667,16.24 51,18.2266667 C49.7333333,18.8666667 54.0666667,18.92 55.4666667,21.2066667 C56.5333333,23 58.6,22.5933333 59.3333333,23.3 C59.8666667,23.7733333 57.2,25.3533333 56.0666667,26.7333333 C55.0666667,27.9533333 55,29.4333333 54.1333333,30.08 C53.3333333,30.66 50.9333333,31.5466667 51.2666667,33.7666667 C51.5333333,35.1066667 51.2666667,35.96 50.6,36.4866667 C49.8666667,37.1066667 50.9333333,38.3533333 50.0666667,38.9133333 C48.8666667,39.6866667 48.6,38.5266667 46.1333333,39.6466667 C44.8666667,40.24 43.2,38.4666667 42.2,36.7466667 C40.4666667,33.7733333 40.1333333,32.26 39.0666667,31.2533333 C38,30.2733333 35.4666667,29.6933333 33.4666667,31.04 C32,32.06 31.4666667,34.6466667 32.8666667,38.7733333 C33.6,40.8133333 35.5333333,41.9933333 36.1333333,43.7266667 C36.4,44.52 35.9333333,44.9066667 35.8666667,45.62 C35.7333333,46.4333333 37.1333333,47.1933333 36.2666667,47.9 C35.4666667,48.5933333 36.0666667,50.2733333 33,49.3333333 C33,49.3333333 38.6666667,56.7866667 44.2,58.3533333 C46.4666667,58.9933333 48.8,58.0866667 50.0666667,58.8666667 C50.7333333,59.28 51.6,60.9666667 52.7333333,60.4133333 C54.2666667,59.6466667 57.4666667,57.78 61.2666667,57.8 C62.7333333,57.8066667 68.3333333,59.48 69.8,57.8466667 C71,56.54 70.4,53.3933333 70.6666667,51.5466667 C70.8666667,49.7733333 72.3333333,48.3666667 71.7333333,48.1933333 L67.4666667,46.74 C67.4666667,46.74 71.4,45.5666667 72.4,44.4866667 C72.7333333,44.1266667 72.0666667,40.0733333 72.5333333,39.4066667 C73.0666667,38.68 77.1333333,39.4133333 76.6,36.66 C76.3333333,34.98 73.0666667,30.2 72.4666667,29.0533333 C71.8666667,27.96 74.1333333,26.0533333 74.3333333,25.0466667 C74.6666667,23.82 71.3333333,13.82 67.0666667,13.9 Z M71.6,40.9866667 C71.6,40.9866667 72.2666667,44.54 68.9333333,44.82 C67.5333333,44.9333333 67.2,45.92 65.8666667,46.1733333 C65,46.34 64.6,47.52 63.6666667,47.7466667 C61.6,48.24 60.9333333,50.7866667 60.9333333,50.36 C60.8,47.6733333 60.5333333,46.0933333 63.6666667,44.9066667 C64.4,44.6066667 64.6666667,43.3933333 65.5333333,43.3066667 C67,43.1533333 66.9333333,42.0866667 68.5333333,42.16 C70.2,42.24 71.6,40.9866667 71.6,40.9866667 Z M69.6666667,37.7 C70.5333333,37.2666667 72.0666667,37.96 71.8666667,38.24 C71.2666667,39.1466667 70.7333333,39.1 70.2,39.0866667 C69.2666667,39.06 68.6666667,38.1933333 69.6666667,37.7 Z M70.0666667,25.18 C69.5333333,25.2 68.4,26.6666667 63.8,26.6066667 C62.7333333,26.5933333 59,29.4933333 57,30.2266667 C57,30.2266667 57.5333333,30.7 58.5333333,30.76 C59.5333333,30.82 60,30.36 61.3333333,29.7 C62.7333333,29 64.4666667,28.6466667 64.8666667,29.0933333 C65.3333333,29.5866667 63.8,30.1266667 62.4666667,30.3466667 C61.6,30.4933333 60.8,31.3333333 60.2666667,31.68 C60.2666667,31.68 61.6,32.4333333 62.8666667,32.2333333 C64.0666667,32.04 65.5333333,31.8133333 65.5333333,31.8133333 C65.5333333,31.8133333 65,33.7533333 65.4666667,33.78 C65.6666667,33.7933333 65.7333333,33.7866667 66.8666667,31.78 C67.4666667,30.7 67.6,29.1266667 68.5333333,29.9533333 C68.9333333,30.3066667 69.6666667,30.6866667 70,30.0066667 C70.2666667,29.52 69.2666667,28.6066667 69.7333333,28.22 C71.9333333,26.22 71,25.14 70.0666667,25.18 Z" id="Shape" fill="#111111"></path>
            <path d="M6.94,65 L11.2,70.86 L4.26,75.86 L3,74.2 L8.5,70.2 L6.73,67.75 L1.23,71.75 L0,70 L6.94,65 Z M13.22,73.06 L15.81,75.51 C16.3805962,76.0327906 16.705496,76.7711202 16.705496,77.545 C16.705496,78.3188798 16.3805962,79.0572094 15.81,79.58 C15.3183743,80.1818597 14.5965352,80.5495204 13.8206372,80.5932597 C13.0447392,80.6369991 12.2861527,80.3527937 11.73,79.81 L10.67,78.81 L8.83,80.72 L7.31,79.27 L13.22,73.06 Z M12.65,78.21 C12.8541621,78.450766 13.1600217,78.5809952 13.4750815,78.5613039 C13.7901413,78.5416127 14.0774054,78.3743133 14.25,78.11 C14.4902988,77.9203642 14.6305042,77.6311131 14.6305042,77.325 C14.6305042,77.0188869 14.4902988,76.7296358 14.25,76.54 L13.47,75.81 L11.9,77.5 L12.65,78.21 Z M23.06,80.94 C24.0775286,81.5453891 24.8035489,82.5402152 25.069783,83.6938962 C25.3360171,84.8475773 25.1193496,86.0599467 24.47,87.05 C23.0895822,89.0299596 20.3908268,89.5643262 18.3600644,88.2597967 C16.329302,86.9552672 15.6932263,84.2786581 16.92,82.2 C17.5501188,81.198378 18.5619067,80.4974845 19.7210918,80.2596062 C20.8802769,80.0217278 22.0863306,80.2674942 23.06,80.94 Z M19.31,86.79 C19.8709462,87.1166782 20.5396175,87.2043009 21.1657949,87.0331834 C21.7919722,86.8620659 22.3231509,86.4465562 22.64,85.88 C23.1575029,85.1854273 23.2449912,84.2604166 22.8668864,83.4811366 C22.4887817,82.7018565 21.7080589,82.1980997 20.8422101,82.1747259 C19.9763612,82.151352 19.1695972,82.6122542 18.75,83.37 C18.3625572,83.8949822 18.203518,84.5541704 18.3089513,85.1980665 C18.4143846,85.8419625 18.7753559,86.4160028 19.31,86.79 Z M28.79,89 L28,84 L30.22,84.89 L30.43,86.89 C30.5,87.49 30.51,88.11 30.51,88.11 C30.51,88.11 30.93,87.68 31.41,87.28 L32.94,86 L35.16,86.89 L31.16,89.89 L32,94.88 L29.78,94 L29.53,92 C29.46,91.38 29.44,90.81 29.44,90.81 C29.44,90.81 29.03,91.21 28.55,91.6 L27,92.88 L24.79,92 L28.79,89 Z M40.85,88.07 C42.0203243,88.2559781 43.0637068,88.9124163 43.7379312,89.8869255 C44.4121556,90.8614348 44.6585807,92.0692563 44.42,93.23 C43.8758482,95.5861402 41.5634829,97.0881271 39.1896257,96.627367 C36.8157685,96.166607 35.2332045,93.9086236 35.61,91.52 C35.8229522,90.3544939 36.5031414,89.3267161 37.492716,88.6751832 C38.4822907,88.0236503 39.695213,87.8050092 40.85,88.07 Z M39.53,94.9 C40.1724236,94.9939831 40.8257414,94.8269716 41.3442477,94.4362133 C41.862754,94.0454549 42.2033231,93.4634501 42.29,92.82 C42.4869466,91.991916 42.2146147,91.1224744 41.5804535,90.5547151 C40.9462923,89.9869558 40.0521427,89.8120563 39.2507933,90.0990234 C38.4494438,90.3859905 37.8695845,91.0887397 37.74,91.93 C37.5773209,92.561536 37.6753167,93.2319564 38.0119517,93.7905072 C38.3485867,94.3490581 38.8956045,94.7488558 39.53,94.9 Z M47.59,96 C48.3359351,94.5216472 48.6807581,92.8733932 48.59,91.22 L48.59,89.22 L54.4,89.12 L54.51,95.91 L55.51,95.91 L55.57,99.38 L53.71,99.38 L53.71,97.7 L48.71,97.78 L48.71,99.46 L46.78,99.46 L46.7,96 L47.59,96 Z M52.38,95.92 L52.3,90.92 L50.59,90.92 L50.59,91.32 C50.6645325,92.9252083 50.370341,94.5261573 49.73,96 L52.38,95.92 Z M57.77,88.81 L59.83,88.38 L60.65,92.31 C60.76,92.83 60.85,93.76 60.85,93.76 C60.9558527,93.2267552 61.0893663,92.6993762 61.25,92.18 L62.76,87.77 L64.84,87.34 L66.59,95.74 L64.54,96.17 L63.72,92.26 C63.61,91.73 63.51,90.8 63.51,90.8 C63.4038938,91.3341273 63.2669988,91.861674 63.1,92.38 L61.58,96.78 L59.52,97.21 L57.77,88.81 Z M68,86.36 L70,85.44 L72.62,88.24 C73.02,88.67 73.62,89.36 73.62,89.36 C73.62,89.36 73.49,88.47 73.44,87.89 L73.1,84.07 L75.19,83.14 L79.32,90.7 L77.4,91.56 L75.6,88.12 C75.371923,87.6933107 75.1715098,87.2524017 75,86.8 C75,86.8 75.11,87.74 75.15,88.32 L75.33,91 L73.68,91.74 L71.85,89.83 C71.45,89.42 70.85,88.71 70.85,88.71 C71.0552806,89.1289753 71.2355956,89.5597277 71.39,90 L72.72,93.64 L70.79,94.5 L68,86.36 Z M78,81.39 L82.41,78.31 L83.41,79.79 L80.72,81.66 L81.61,82.94 L83.76,81.45 L84.76,82.92 L82.61,84.42 L83.54,85.75 L86.37,83.75 L87.37,85.22 L82.82,88.39 L78,81.39 Z M84.58,76.63 L86.05,75.13 L90.88,79.91 L93,77.79 L88.15,73 L89.62,71.51 L94.45,76.28 L95.19,75.53 L97.66,78 L96.35,79.32 L95.15,78.14 L90.67,82.67 L84.58,76.63 Z M94,68.84 L92.81,70.64 L91.31,69.64 L93.62,66.1 L95.83,67.56 L96.63,66.34 C97.0509128,65.6957322 97.7200625,65.25477 98.4781193,65.1221101 C99.236176,64.9894502 100.015309,65.1769629 100.63,65.64 C101.317026,66.0173786 101.81036,66.6700026 101.986058,67.4339066 C102.161756,68.1978106 102.003118,69.0003883 101.55,69.64 L99.55,72.64 L94,68.84 Z M99.9,68.94 C100.082044,68.6984339 100.144964,68.3874499 100.071145,68.0941158 C99.997326,67.8007817 99.794701,67.5566237 99.52,67.43 C99.2927279,67.21171 98.9758574,67.1133177 98.6649153,67.1644854 C98.3539732,67.2156531 98.0853399,67.4103941 97.94,67.69 L97.37,68.55 L99.31,69.83 L99.9,68.94 Z" id="Combined-Shape" fill="#FFFFFF" fill-rule="nonzero"></path>
        </g>
    </g>
</svg>