<?xml version="1.0" encoding="UTF-8"?>
<svg width="100px" height="88px" viewBox="0 0 100 88" version="1.1" xmlns="http://www.w3.org/2000/svg" xmlns:xlink="http://www.w3.org/1999/xlink">
    <!-- Generator: Sketch 50 (54983) - http://www.bohemiancoding.com/sketch -->
    <title>logo</title>
    <desc>Created with Sketch.</desc>
    <defs></defs>
    <g id="2.0" stroke="none" stroke-width="1" fill="none" fill-rule="evenodd">
        <g id="pr-main" transform="translate(-590.000000, -10.000000)" fill-rule="nonzero">
            <g id="logo" transform="translate(590.000000, 10.000000)">
                <ellipse id="Oval" fill="#FFFFFF" cx="49.5798319" cy="33.5238095" rx="31.9327731" ry="31.847619"></ellipse>
                <path d="M49.5798319,0 C68.1440252,1.13369772e-15 83.1932773,15.0091208 83.1932773,33.5238095 C83.1932773,52.0384983 68.1440252,67.047619 49.5798319,67.047619 C31.0156387,67.047619 15.9663866,52.0384983 15.9663866,33.5238095 C15.9663866,15.0091208 31.0156387,3.40109315e-15 49.5798319,0 Z M50.4789916,54.8449524 C49.8571429,54.8449524 51.1512605,51.9702857 49.4705882,52.0792381 C48.5142224,52.1441335 47.5534507,52.0821317 46.6134454,51.8948571 C45.8823529,51.8194286 46.7226891,55.7752381 45.3193277,60.1668571 C44.8739496,61.7592381 45.210084,61.9771429 46.4453782,61.2899048 C48.512605,60.1249524 49.9159664,56.7809524 50.1932773,56.7725714 C50.697479,56.7725714 50.5294118,59.8819048 52.6638655,59.8902857 C54.7983193,59.8986667 55.0168067,56.4457143 55.2941176,56.4373333 C55.5714286,56.4289524 55.5714286,57.5939048 56.2436975,58.951619 C57.8151261,61.9855238 58.3193277,61.0133333 58.4285714,59.479619 C58.8235294,53.2860952 60.6722689,51.3584762 60.2773109,51.0986667 C58.2605042,49.9085714 55.7983193,54.3085714 55.4621849,54.3253333 C55.1260504,54.3420952 55.3529412,51.928381 53.3865546,51.9786667 C51.4201681,52.0289524 51.0336134,54.8198095 50.4789916,54.8449524 Z M29.8067227,39.4659048 C29.8067227,39.4659048 28.7983193,40.7565714 30.1428571,42.8182857 C31.487395,44.88 33.2773109,47.0087619 34.0588235,48.5592381 C34.8403361,50.1097143 39.2184874,52.984381 40.0588235,53.8727619 C40.8991597,54.7611429 43.1344538,56.5714286 43.3613445,57.2251429 C43.5882353,57.8788571 44.8739496,53.7386667 44.7647059,52.8670476 C44.6554622,51.9954286 43.8655462,50.8053333 42.0168067,50.2019048 C39.8076518,49.3388541 37.857507,47.9248737 36.3529412,46.0952381 C35.4033613,44.6788571 29.8067227,39.4659048 29.8067227,39.4659048 Z M63.0840336,11.6495238 C61.6218487,11.6495238 60.0588235,14.0380952 59.2184874,13.9459048 C57.9831933,13.8034286 52.8319328,13.6106667 49.5798319,15.2784762 C48.512605,15.8148571 52.1596639,15.8567619 53.3361345,17.7927619 C54.2268908,19.2929524 55.9663866,18.9493333 56.5798319,19.544381 C57.0336134,19.9382857 54.789916,21.2624762 53.8403361,22.4190476 C53,23.4415238 52.9411765,24.6819048 52.210084,25.2266667 C51.4789916,25.7714286 49.5210084,26.4586667 49.8067227,28.3192381 C50.0252101,29.4422857 49.8067227,30.1546667 49.2436975,30.5988571 C48.6806723,31.0430476 49.5210084,32.1577143 48.7983193,32.6270476 C47.789916,33.2807619 47.5630252,32.3085714 45.487395,33.2472381 C44.4285714,33.7417143 43.0252101,32.2582857 42.1848739,30.8167619 C40.7310924,28.3024762 40.4453782,27.0537143 39.5546218,26.2072381 C38.1839397,25.1542423 36.2946467,25.0835827 34.8487395,26.0312381 C33.6134454,26.8693333 33.1680672,29.0567619 34.3445378,32.5097143 C34.9579832,34.1859048 36.5798319,35.208381 37.0840336,36.7001905 C37.3109244,37.3622857 36.9159664,37.6891429 36.8655462,38.2841905 C36.8151261,38.8792381 37.9243697,39.6 37.2016807,40.1950476 C36.4789916,40.7900952 37.0336134,42.1813333 34.4537815,41.3935238 C34.4537815,41.3935238 39.2184874,47.6457143 43.8655462,48.936381 C45.7731092,49.4727619 47.7310924,48.7184762 48.7983193,49.3721905 C49.3529412,49.7158095 50.0840336,51.1321905 51.0336134,50.6628571 C52.3193277,49.992381 55.0168067,48.4251429 58.2016807,48.4419048 C59.4285714,48.4419048 64.1344538,49.8499048 65.3697479,48.4838095 C66.3781513,47.3859048 65.8739496,44.7459048 66.1008403,43.2038095 C66.3277311,41.6617143 67.4957983,40.5386667 66.9915966,40.3878095 L63.4117647,39.1725714 C63.4117647,39.1725714 66.7142857,38.192 67.5546218,37.2868571 C67.8319328,36.9851429 67.2773109,33.5824762 67.6638655,33.0293333 C68.0504202,32.4761905 71.5294118,33.0293333 71.0840336,30.7245714 C70.8571429,29.3165714 68.1176471,25.3104762 67.6134454,24.3466667 C67.1092437,23.3828571 69.0084034,21.832381 69.1764706,20.9942857 C69.4705882,19.9634286 66.6638655,11.5824762 63.0840336,11.6495238 Z M66.8907563,34.3619048 C66.8907563,34.3619048 67.4537815,37.3371429 64.6470588,37.5718095 C63.4705882,37.664 63.1932773,38.4937143 62.0756303,38.7032381 C61.3445378,38.8457143 61.0084034,39.8346667 60.2268908,40.0274286 C58.487395,40.4380952 57.9243697,42.5417143 57.9243697,42.2148571 C57.8151261,39.960381 57.5882353,38.6361905 60.2268908,37.6472381 C60.8403361,37.3958095 61.0672269,36.3733333 61.789916,36.3062857 C63.0252101,36.1721905 62.9663866,35.2838095 64.3109244,35.3424762 C65.2586576,35.3228212 66.1702952,34.9763158 66.8907563,34.3619048 Z M65.2689076,31.5961905 C65.9915966,31.2358095 67.2857143,31.8140952 67.1176471,32.0487619 C66.854761,32.5651184 66.2875851,32.8530309 65.7142857,32.7611429 C64.9243697,32.736 64.4285714,32.0068571 65.2689076,31.5961905 Z M65.605042,21.1032381 C65.1512605,21.1032381 64.2016807,22.352 60.3361345,22.3017143 C59.4369748,22.3017143 56.302521,24.7154286 54.6218487,25.335619 C54.9937237,25.6133382 55.4431219,25.768597 55.907563,25.7798095 C56.7478992,25.8300952 57.1428571,25.4445714 58.2605042,24.8914286 C59.3781513,24.3382857 60.8991597,24.0114286 61.2352941,24.3801905 C61.5714286,24.7489524 60.3361345,25.2182857 59.2184874,25.4361905 C58.5283577,25.6746963 57.8957983,26.0543616 57.3613445,26.5508571 C58.029167,26.9132149 58.788473,27.073409 59.5462185,27.0118095 L61.7815126,26.6598095 C61.7815126,26.6598095 61.3361345,28.2857143 61.7310924,28.336 C61.8991597,28.336 61.9495798,28.336 62.907563,26.6598095 C63.4117647,25.7546667 63.5210084,24.4388571 64.302521,25.1260952 C64.6386555,25.4278095 65.2605042,25.7462857 65.5378151,25.176381 C65.7647059,24.7657143 64.9243697,24.0030476 65.3109244,23.6761905 C67.1680672,21.9748571 66.3865546,21.0697143 65.605042,21.1032381 Z" id="Shape" fill="#111111"></path>
                <path d="M8.26890756,47.0590476 L11.2941176,54.032 L3.01680672,57.5939048 L2.17647059,55.5740952 L8.72268908,52.7497143 L7.42016807,49.8247619 L0.840336134,52.6491429 L0,50.6293333 L8.26890756,47.0590476 Z M12.8739496,56.5965714 L15.1260504,59.6053333 C15.6226259,60.2469069 15.8245723,61.0677348 15.6821582,61.8656802 C15.5397442,62.6636255 15.0662039,63.3645374 14.3781513,63.7958095 C13.7578938,64.338093 12.9358834,64.592114 12.1168558,64.4946043 C11.2978282,64.3970946 10.5588708,63.9572318 10.0840336,63.2845714 L9.17647059,62.0190476 L6.93277311,63.6952381 L5.62184874,61.9268571 L12.8739496,56.5965714 Z M11.3361345,61.8011429 C11.5152274,62.0737811 11.8065231,62.2529639 12.1311919,62.2902012 C12.4558608,62.3274386 12.7803352,62.2188805 13.0168067,61.9939048 C13.2942921,61.840893 13.4899504,61.5735735 13.5515105,61.2633621 C13.6130707,60.9531506 13.5342605,60.6316541 13.3361345,60.3847619 L12.6638655,59.5047619 L10.697479,60.9295238 L11.3361345,61.8011429 Z M21.7142857,66.2765714 C22.691039,67.0455365 23.3112647,68.1783956 23.4317889,69.4136381 C23.5523132,70.6488806 23.1627191,71.8797444 22.3529412,72.8220952 C21.2676344,74.1096124 19.5760507,74.721867 17.9153934,74.4282288 C16.2547361,74.1345905 14.8772985,72.9796699 14.301948,71.3985144 C13.7265975,69.817359 14.0407436,68.0501838 15.1260504,66.7626667 C15.9195823,65.8027035 17.0719959,65.2078572 18.3160563,65.1160675 C19.5601166,65.0242779 20.7877526,65.4435186 21.7142857,66.2765714 Z M17.0084034,71.8499048 C17.5464718,72.2723793 18.2337156,72.4583665 18.9121054,72.3650996 C19.5904953,72.2718326 20.2016519,71.9073375 20.605042,71.3554286 C21.2236569,70.6997262 21.4281526,69.756686 21.1364883,68.9046434 C20.844824,68.0526008 20.1047887,67.4311626 19.213275,67.2896419 C18.3217612,67.1481213 17.4248433,67.5097061 16.8823529,68.2293333 C16.4054623,68.7201052 16.1494348,69.3833449 16.1732139,70.0663588 C16.1969931,70.7493727 16.4985299,71.3933041 17.0084034,71.8499048 Z M26.7226891,75.3531429 L26.3193277,70.0815238 L28.5714286,71.2380952 L28.5714286,74.5737143 C28.5714286,74.5737143 29.0420168,74.1630476 29.5882353,73.7859048 L31.2689076,72.5874286 L33.6134454,73.752381 L29.1092437,76.5432381 L29.5462185,81.7645714 L27.3109244,80.6415238 L27.2352941,78.496 L27.2352941,77.2472381 C27.2352941,77.2472381 26.7731092,77.6327619 26.2352941,77.9931429 L24.4537815,79.2 L22.2689076,78.1020952 L26.7226891,75.3531429 Z M39.4201681,75.1939048 C40.6389996,75.4387294 41.7045009,76.1698452 42.3694324,77.2176038 C43.034364,78.2653624 43.2409219,79.53868 42.9411765,80.7420952 C42.5523875,82.3769426 41.3186189,83.6807405 39.7046194,84.1623609 C38.09062,84.6439813 36.3415945,84.2302546 35.1163841,83.0770276 C33.8911736,81.9238006 33.3759168,80.2062759 33.7647059,78.5714286 C34.0413026,77.3611756 34.8015831,76.3161246 35.8693895,75.6784152 C36.9371958,75.0407058 38.2198531,74.8656848 39.4201681,75.1939048 Z M37.7394958,82.2758095 C38.41193,82.4123699 39.1111246,82.2696388 39.6756827,81.8805631 C40.2402408,81.4914875 40.6213697,80.8896936 40.7310924,80.2140952 C40.9737123,79.3543659 40.7239971,78.4311861 40.0807447,77.8098042 C39.4374922,77.1884223 38.5043468,76.9689589 37.6504999,77.2382428 C36.7966529,77.5075267 36.1596809,78.2221695 35.9915966,79.0994286 C35.7870428,79.7507819 35.856802,80.4570865 36.1848516,81.0561167 C36.5129012,81.6551469 37.0710469,82.0954188 37.7310924,82.2758095 L37.7394958,82.2758095 Z M46.3613445,83.6670476 C47.1541251,82.1135662 47.5222379,80.3790886 47.4285714,78.6384762 L47.4285714,76.5180952 L53.5294118,76.4175238 L53.6386555,83.5329524 L54.6470588,83.5329524 L54.7058824,87.1619048 L52.7563025,87.1619048 L52.7563025,85.4019048 L47.5462185,85.4857143 L47.5462185,87.2457143 L45.5210084,87.2457143 L45.4621849,83.6167619 L46.3613445,83.6670476 Z M51.4033613,83.5832381 L51.3193277,78.3535238 L49.512605,78.3535238 L49.512605,78.7809524 C49.5784352,80.4404366 49.2682208,82.093366 48.605042,83.6167619 L51.4033613,83.5832381 Z M56.9243697,76.0152381 L59.0504202,75.4285714 L60.1512605,79.4849524 C60.2941176,80.0297143 60.4537815,80.9935238 60.4537815,80.9935238 C60.5335994,80.4294689 60.642993,79.8699719 60.7815126,79.3173333 L62.1176471,74.5904762 L64.2689076,74.0121905 L66.6218487,82.6864762 L64.487395,83.256381 L63.394958,79.2167619 C63.2521008,78.672 63.092437,77.7081905 63.092437,77.7081905 C63.0126191,78.2722454 62.9032255,78.8317424 62.7647059,79.384381 L61.4369748,84.0777143 L59.2941176,84.656 L56.9243697,76.0152381 Z M67.3445378,72.8053333 L69.4117647,71.6068571 L72.4621849,74.2384762 C72.9243697,74.632381 73.5966387,75.2860952 73.5966387,75.2860952 C73.5966387,75.2860952 73.3613445,74.3809524 73.2436975,73.7775238 L72.4621849,69.8384762 L74.5294118,68.631619 L79.697479,76.040381 L77.8151261,77.1047619 L75.5294118,73.752381 C75.2549395,73.3298299 75.0025033,72.8934407 74.7731092,72.4449524 C74.7731092,72.4449524 74.9915966,73.4087619 75.1008403,74.0038095 L75.5966387,76.727619 L73.9159664,77.6746667 L71.789916,75.8979048 C71.3445378,75.5459048 70.5882353,74.8838095 70.5882353,74.8838095 C70.866297,75.3012648 71.1188565,75.7350685 71.3445378,76.1828571 L73.1512605,79.8285714 L71.2268908,80.9348571 L67.3445378,72.8053333 Z M77.1512605,66.4693333 L81.2352941,62.5805714 L82.5462185,63.9466667 L80.0252101,66.3184762 L81.1596639,67.5001905 L83.1932773,65.6060952 L84.4957983,66.9721905 L82.512605,68.8579048 L83.6806723,70.0899048 L86.302521,67.575619 L87.605042,68.9333333 L83.4033613,72.9478095 L77.1512605,66.4693333 Z M83.1008403,60.552381 L84.3193277,58.7169524 L90.2689076,62.6392381 L91.9495798,60.0411429 L86.0420168,56.152381 L87.2605042,54.3169524 L93.210084,58.2392381 L93.8235294,57.3173333 L96.8571429,59.320381 L95.7983193,60.9127619 L94.3277311,59.9405714 L90.6386555,65.5055238 L83.1008403,60.552381 Z M91.0336134,50.5958095 L90.2773109,52.7245714 L88.4957983,52.096 L89.9831933,47.9055238 L92.6134454,48.8358095 L93.1260504,47.3859048 C93.6992199,45.7658696 95.4806751,44.9159782 97.105042,45.4876192 C98.7294088,46.0592602 99.5815727,47.8359648 99.0084034,49.456 L97.7563025,52.976 L91.0336134,50.5958095 Z M97.0756303,49.1961905 C97.1883159,48.9054289 97.1675343,48.5800153 97.018772,48.3058614 C96.8700096,48.0317076 96.6082212,47.8363733 96.302521,47.7714286 C96.0113891,47.6267927 95.6710278,47.6179605 95.3727482,47.7473014 C95.0744686,47.8766424 94.8488068,48.1309153 94.7563025,48.4419048 L94.394958,49.447619 L96.7058824,50.2857143 L97.0756303,49.1961905 Z" id="Combined-Shape" fill="#FFFFFF"></path>
            </g>
        </g>
    </g>
</svg>