<?xml version="1.0" encoding="UTF-8"?>
<svg width="70px" height="70px" viewBox="0 0 70 70" version="1.1" xmlns="http://www.w3.org/2000/svg" xmlns:xlink="http://www.w3.org/1999/xlink">
    <!-- Generator: Sketch 50 (54983) - http://www.bohemiancoding.com/sketch -->
    <title>Slice</title>
    <desc>Created with Sketch.</desc>
    <defs></defs>
    <g id="2.0" stroke="none" stroke-width="1" fill="none" fill-rule="evenodd">
        <g id="Group-47" fill="#FFFFFF">
            <g id="Group-46" transform="translate(12.000000, 27.000000)">
                <path d="M14.9266874,2.14662513 L12,8 L14.9266874,13.8533749 C15.1242788,14.2485576 14.9640994,14.729096 14.5689166,14.9266874 C14.3436946,15.0392984 14.0785968,15.0392984 13.8533749,14.9266874 L1.43108342,8.71554171 C1.03590065,8.51795032 0.875721178,8.03741192 1.07331257,7.64222914 C1.15072352,7.48740723 1.27626151,7.36186925 1.43108342,7.28445829 L13.8533749,1.07331257 C14.2485576,0.875721178 14.729096,1.03590065 14.9266874,1.43108342 C15.0392984,1.6563054 15.0392984,1.92140315 14.9266874,2.14662513 Z" id="Rectangle-7"></path>
                <path d="M44.9266874,2.14662513 L42,8 L44.9266874,13.8533749 C45.1242788,14.2485576 44.9640994,14.729096 44.5689166,14.9266874 C44.3436946,15.0392984 44.0785968,15.0392984 43.8533749,14.9266874 L31.4310834,8.71554171 C31.0359006,8.51795032 30.8757212,8.03741192 31.0733126,7.64222914 C31.1507235,7.48740723 31.2762615,7.36186925 31.4310834,7.28445829 L43.8533749,1.07331257 C44.2485576,0.875721178 44.729096,1.03590065 44.9266874,1.43108342 C45.0392984,1.6563054 45.0392984,1.92140315 44.9266874,2.14662513 Z" id="Rectangle-7" transform="translate(38.000000, 8.000000) scale(-1, 1) translate(-38.000000, -8.000000) "></path>
            </g>
        </g>
    </g>
</svg>